<svg width="121" height="60" viewBox="0 0 121 60" fill="none" xmlns="http://www.w3.org/2000/svg">
<path d="M84.9929 45.5173C83.3708 45.5173 81.9253 45.2288 80.6563 44.6518C79.3874 44.0636 78.3832 43.1981 77.6439 42.0555C76.9157 40.9016 76.5515 39.4648 76.5515 37.7453C76.5515 36.2972 76.8108 35.0811 77.3294 34.0968C77.8481 33.1126 78.5543 32.3207 79.4481 31.7211C80.3419 31.1215 81.357 30.669 82.4936 30.3636C83.6412 30.0581 84.8439 29.8432 86.1019 29.7187C87.5805 29.5604 88.7722 29.4133 89.677 29.2775C90.5819 29.1305 91.2384 28.9155 91.6467 28.6327C92.055 28.3499 92.2591 27.9313 92.2591 27.377V27.2751C92.2591 26.2004 91.9281 25.3689 91.266 24.7806C90.615 24.1924 89.6881 23.8982 88.4853 23.8982C87.2163 23.8982 86.2067 24.1867 85.4563 24.7637C84.706 25.3293 84.2094 26.042 83.9667 26.9018L77.4453 26.3588C77.7763 24.775 78.4274 23.4061 79.3984 22.2522C80.3694 21.0869 81.6219 20.1932 83.1557 19.571C84.7005 18.9375 86.4881 18.6207 88.5184 18.6207C89.9308 18.6207 91.2825 18.7904 92.5736 19.1298C93.8756 19.4692 95.0287 19.9953 96.0329 20.708C97.0481 21.4207 97.8481 22.337 98.4329 23.457C99.0177 24.5657 99.3101 25.895 99.3101 27.4448V45.0252H92.6232V41.4107H92.4246C92.0163 42.2252 91.4701 42.9436 90.786 43.5658C90.1019 44.1767 89.2798 44.6575 88.3198 45.0082C87.3598 45.3476 86.2508 45.5173 84.9929 45.5173ZM87.0122 40.5283C88.0494 40.5283 88.9653 40.319 89.7598 39.9004C90.5543 39.4705 91.1777 38.8935 91.6301 38.1695C92.0826 37.4455 92.3088 36.6253 92.3088 35.7089V32.9429C92.0881 33.09 91.7846 33.2257 91.3984 33.3502C91.0232 33.4633 90.5984 33.5708 90.1239 33.6726C89.6494 33.7631 89.175 33.848 88.7005 33.9272C88.226 33.995 87.7957 34.0573 87.4094 34.1138C86.5819 34.2383 85.8591 34.4362 85.2412 34.7077C84.6232 34.9793 84.1432 35.3469 83.8012 35.8108C83.4591 36.2633 83.2881 36.8289 83.2881 37.5077C83.2881 38.4919 83.6357 39.2442 84.3308 39.7646C85.037 40.2737 85.9308 40.5283 87.0122 40.5283Z" fill="white"/>
<path d="M47.5738 45.5173C45.6389 45.5173 43.8865 45.0083 42.3164 43.9903C40.7575 42.961 39.5191 41.4509 38.6014 39.4601C37.6948 37.458 37.2415 35.0035 37.2415 32.0965C37.2415 29.1103 37.7114 26.6275 38.6512 24.648C39.591 22.6572 40.8404 21.1698 42.3994 20.1857C43.9694 19.1903 45.6887 18.6926 47.5573 18.6926C48.9836 18.6926 50.1721 18.9415 51.123 19.4392C52.0849 19.9256 52.8589 20.5364 53.4449 21.2716C54.0419 21.9955 54.4953 22.7081 54.8049 23.4094H55.0205V10.3449H62.069V45.0931H55.1034V40.9193H54.8049C54.4732 41.6432 54.0033 42.3615 53.3951 43.0741C52.7981 43.7754 52.0186 44.3579 51.0567 44.8217C50.1058 45.2854 48.9449 45.5173 47.5738 45.5173ZM49.8128 39.7655C50.9516 39.7655 51.9136 39.4488 52.6986 38.8154C53.4946 38.1706 54.1028 37.2714 54.5229 36.1176C54.9541 34.9639 55.1697 33.6122 55.1697 32.0626C55.1697 30.5129 54.9596 29.1669 54.5395 28.0244C54.1193 26.882 53.5112 25.9997 52.7152 25.3776C51.9191 24.7555 50.9516 24.4444 49.8128 24.4444C48.6519 24.4444 47.6734 24.7668 46.8773 25.4115C46.0812 26.0563 45.4786 26.9499 45.0695 28.0923C44.6604 29.2347 44.4559 30.5582 44.4559 32.0626C44.4559 33.5783 44.6604 34.9186 45.0695 36.0837C45.4897 37.2375 46.0923 38.1424 46.8773 38.7984C47.6734 39.4432 48.6519 39.7655 49.8128 39.7655Z" fill="white"/>
<path d="M8.44138 45.5173C6.81931 45.5173 5.37379 45.2288 4.10483 44.6518C2.83586 44.0636 1.83172 43.1981 1.09241 42.0555C0.364138 40.9016 0 39.4648 0 37.7453C0 36.2972 0.25931 35.0811 0.777931 34.0968C1.29655 33.1126 2.00276 32.3207 2.89655 31.7211C3.79034 31.1215 4.80552 30.669 5.94207 30.3636C7.08965 30.0581 8.29241 29.8432 9.55034 29.7187C11.029 29.5604 12.2207 29.4133 13.1255 29.2775C14.0303 29.1305 14.6869 28.9155 15.0952 28.6327C15.5034 28.3499 15.7076 27.9313 15.7076 27.377V27.2751C15.7076 26.2004 15.3765 25.3689 14.7145 24.7806C14.0634 24.1924 13.1365 23.8982 11.9338 23.8982C10.6648 23.8982 9.65517 24.1867 8.90483 24.7637C8.15448 25.3293 7.65793 26.042 7.41517 26.9018L0.893793 26.3588C1.22483 24.775 1.87586 23.4061 2.8469 22.2522C3.81793 21.0869 5.07034 20.1932 6.60414 19.571C8.14896 18.9375 9.93655 18.6207 11.9669 18.6207C13.3793 18.6207 14.731 18.7904 16.0221 19.1298C17.3241 19.4692 18.4772 19.9953 19.4814 20.708C20.4965 21.4207 21.2965 22.337 21.8814 23.457C22.4662 24.5657 22.7586 25.895 22.7586 27.4448V45.0252H16.0717V41.4107H15.8731C15.4648 42.2252 14.9186 42.9436 14.2345 43.5658C13.5503 44.1767 12.7283 44.6575 11.7683 45.0082C10.8083 45.3476 9.69931 45.5173 8.44138 45.5173ZM10.4607 40.5283C11.4979 40.5283 12.4138 40.319 13.2083 39.9004C14.0028 39.4705 14.6262 38.8935 15.0786 38.1695C15.531 37.4455 15.7572 36.6253 15.7572 35.7089V32.9429C15.5365 33.09 15.2331 33.2257 14.8469 33.3502C14.4717 33.4633 14.0469 33.5708 13.5724 33.6726C13.0979 33.7631 12.6234 33.848 12.149 33.9272C11.6745 33.995 11.2441 34.0573 10.8579 34.1138C10.0303 34.2383 9.30758 34.4362 8.68965 34.7077C8.07172 34.9793 7.59172 35.3469 7.24965 35.8108C6.90759 36.2633 6.73655 36.8289 6.73655 37.5077C6.73655 38.4919 7.08414 39.2442 7.77931 39.7646C8.48552 40.2737 9.37931 40.5283 10.4607 40.5283Z" fill="white"/>
<path fill-rule="evenodd" clip-rule="evenodd" d="M26.8962 19.8624V45.0654H33.1031V19.8624H26.8962Z" fill="white"/>
<path fill-rule="evenodd" clip-rule="evenodd" d="M66.207 19.8624V45.0654H72.4139V19.8624H66.207Z" fill="white"/>
<g clip-path="url(#clip0_192_514)">
<path fill-rule="evenodd" clip-rule="evenodd" d="M29.9998 9.13782C29.2212 9.13771 28.4629 9.38559 27.8348 9.84553C27.2066 10.3055 26.7413 10.9535 26.5063 11.6958C26.2713 12.438 26.2789 13.2358 26.5279 13.9734C26.7769 14.7111 27.2544 15.3502 27.8911 15.7982L28.514 17.0439C28.6214 17.2586 28.7865 17.4392 28.9907 17.5654C29.195 17.6916 29.4304 17.7585 29.6705 17.7585H30.3291C30.5692 17.7585 30.8046 17.6916 31.0088 17.5654C31.2131 17.4392 31.3781 17.2586 31.4855 17.0439L32.1084 15.7982C32.7451 15.3502 33.2226 14.7111 33.4716 13.9734C33.7206 13.2358 33.7282 12.438 33.4932 11.6958C33.2582 10.9535 32.7929 10.3055 32.1648 9.84553C31.5366 9.38559 30.7783 9.13771 29.9998 9.13782ZM30.8618 16.3632C30.5795 16.4313 30.2902 16.4656 29.9998 16.4654C29.7094 16.4656 29.42 16.4313 29.1377 16.3632L29.2851 16.6581C29.3209 16.7297 29.3759 16.7899 29.4439 16.832C29.512 16.8741 29.5904 16.8964 29.6705 16.8964H30.3291C30.4091 16.8964 30.4875 16.8741 30.5556 16.832C30.6237 16.7899 30.6787 16.7297 30.7144 16.6581L30.8618 16.3632Z" fill="white"/>
</g>
<path fill-rule="evenodd" clip-rule="evenodd" d="M69.3622 16.5518C70.4684 16.5518 71.4417 15.9919 72.005 15.1444C74.4742 12.0502 77.677 9.619 81.3248 8.07267C85.069 6.48547 89.1573 5.88346 93.2 6.324C97.2428 6.76455 101.105 8.23296 104.42 10.5893C107.734 12.9457 110.39 16.1116 112.134 19.7852C113.879 23.4589 114.653 27.518 114.384 31.5758C114.115 35.6336 112.811 39.5549 110.597 42.9661C108.383 46.3773 105.333 49.1647 101.736 51.0629C98.4297 52.8078 94.7633 53.7477 91.0345 53.8126V53.793H0V59.9999H90.5323C90.5909 60 90.6494 60 90.708 59.9999H91.0345V59.9971C95.7685 59.9318 100.426 58.7466 104.622 56.5318C109.153 54.1409 112.995 50.6297 115.784 46.3327C118.573 42.0358 120.215 37.0964 120.554 31.985C120.893 26.8736 119.918 21.7605 117.721 17.133C115.523 12.5055 112.178 8.5176 108.003 5.54939C103.828 2.58118 98.9624 0.731486 93.8699 0.176557C88.7774 -0.378373 83.6277 0.379946 78.9113 2.37926C74.413 4.28616 70.4518 7.26139 67.3689 11.0426C66.6598 11.6117 66.207 12.478 66.207 13.4484C66.207 15.1624 67.6197 16.5518 69.3622 16.5518Z" fill="white"/>
<defs>
<clipPath id="clip0_192_514">
<rect width="10.3448" height="10.3448" fill="white" transform="translate(24.8274 8.27576)"/>
</clipPath>
</defs>
</svg>
